HIERARCHY
ROOT Hips
{
	OFFSET 0.00000 0.00000 0.00000
	CHANNELS 6 Xposition Yposition Zposition Zrotation Yrotation Xrotation 
	JOINT LHipJoint
	{
		OFFSET 0 0 0
		CHANNELS 3 Zrotation Yrotation Xrotation
		JOINT LeftUpLeg
		{
			OFFSET 1.28858 -1.83292 1.03970
			CHANNELS 3 Zrotation Yrotation Xrotation
			JOINT LeftLeg
			{
				OFFSET 2.47846 -6.80952 0.00000
				CHANNELS 3 Zrotation Yrotation Xrotation
				JOINT LeftFoot
				{
					OFFSET 2.75274 -7.56311 0.00000
					CHANNELS 3 Zrotation Yrotation Xrotation
					JOINT LeftToeBase
					{
						OFFSET 0.12848 -0.35301 1.68223
						CHANNELS 3 Zrotation Yrotation Xrotation
						End Site
						{
							OFFSET 0.00000 -0.00000 0.87311
						}
					}
				}
			}
		}
	}
	JOINT RHipJoint
	{
		OFFSET 0 0 0
		CHANNELS 3 Zrotation Yrotation Xrotation
		JOINT RightUpLeg
		{
			OFFSET -1.31183 -1.83292 1.03970
			CHANNELS 3 Zrotation Yrotation Xrotation
			JOINT RightLeg
			{
				OFFSET -2.44740 -6.72417 0.00000
				CHANNELS 3 Zrotation Yrotation Xrotation
				JOINT RightFoot
				{
					OFFSET -2.67343 -7.34519 0.00000
					CHANNELS 3 Zrotation Yrotation Xrotation
					JOINT RightToeBase
					{
						OFFSET -0.16914 -0.46471 1.77626
						CHANNELS 3 Zrotation Yrotation Xrotation
						End Site
						{
							OFFSET -0.00000 -0.00000 0.92777
						}
					}
				}
			}
		}
	}
	JOINT LowerBack
	{
		OFFSET 0 0 0
		CHANNELS 3 Zrotation Yrotation Xrotation
		JOINT Spine
		{
			OFFSET 0.01249 2.14252 0.03842
			CHANNELS 3 Zrotation Yrotation Xrotation
			JOINT Spine1
			{
				OFFSET -0.02957 2.14199 -0.03751
				CHANNELS 3 Zrotation Yrotation Xrotation
				JOINT Neck
				{
					OFFSET 0 0 0
					CHANNELS 3 Zrotation Yrotation Xrotation
					JOINT Neck1
					{
						OFFSET -0.01678 1.65709 -0.05476
						CHANNELS 3 Zrotation Yrotation Xrotation
						JOINT Head
						{
							OFFSET 0.07912 1.58331 -0.11843
							CHANNELS 3 Zrotation Yrotation Xrotation
							End Site
							{
								OFFSET 0.03298 1.73940 -0.04271
							}
						}
					}
				}
				JOINT LeftShoulder
				{
					OFFSET 0 0 0
					CHANNELS 3 Zrotation Yrotation Xrotation
					JOINT LeftArm
					{
						OFFSET 3.39556 1.16496 0.08673
						CHANNELS 3 Zrotation Yrotation Xrotation
						JOINT LeftForeArm
						{
							OFFSET 5.23910 -0.00000 -0.00000
							CHANNELS 3 Zrotation Yrotation Xrotation
							JOINT LeftHand
							{
								OFFSET 3.31467 -0.00000 0.00000
								CHANNELS 3 Zrotation Yrotation Xrotation
								JOINT LeftFingerBase
								{
									OFFSET 0 0 0
									CHANNELS 3 Zrotation Yrotation Xrotation
									JOINT LeftHandIndex1
									{
										OFFSET 0.96590 -0.00000 0.00000
										CHANNELS 3 Zrotation Yrotation Xrotation
										End Site
										{
											OFFSET 0.77873 -0.00000 0.00000
										}
									}
								}
								JOINT LThumb
								{
									OFFSET 0 0 0
									CHANNELS 3 Zrotation Yrotation Xrotation
									End Site
									{
										OFFSET 0.79062 -0.00000 0.79062
									}
								}
							}
						}
					}
				}
				JOINT RightShoulder
				{
					OFFSET 0 0 0
					CHANNELS 3 Zrotation Yrotation Xrotation
					JOINT RightArm
					{
						OFFSET -3.27193 1.31331 0.33940
						CHANNELS 3 Zrotation Yrotation Xrotation
						JOINT RightForeArm
						{
							OFFSET -5.30252 -0.00000 0.00000
							CHANNELS 3 Zrotation Yrotation Xrotation
							JOINT RightHand
							{
								OFFSET -3.67875 -0.00000 0.00000
								CHANNELS 3 Zrotation Yrotation Xrotation
								JOINT RightFingerBase
								{
									OFFSET 0 0 0
									CHANNELS 3 Zrotation Yrotation Xrotation
									JOINT RightHandIndex1
									{
										OFFSET -0.59481 -0.00000 0.00000
										CHANNELS 3 Zrotation Yrotation Xrotation
										End Site
										{
											OFFSET -0.47955 -0.00000 0.00000
										}
									}
								}
								JOINT RThumb
								{
									OFFSET 0 0 0
									CHANNELS 3 Zrotation Yrotation Xrotation
									End Site
									{
										OFFSET -0.48687 -0.00000 0.48687
									}
								}
							}
						}
					}
				}
			}
		}
	}
}
MOTION
Frames: 11
Frame Time: .0083333
9.3944 18.0876 -37.9346 0 0 0 0 0 0 -21 0 0 0 0 0 0 0 0 0 0 0 0 0 0 21 0 0 0 0 0 0 0 0 0 0 0 0 0 0 0 0 0 0 0 0 0 0 -16 0 0 21 0 0 11 0 0 0 -8 0 0 0 0 0 0 0 0 0 0 0 0 0 0 0 0 0 0 0 0 8 0 0 0 0 0 0 0 0 0 0 0 0 0 0 0 0 0
9.3944 18.0876 -37.9346 0.3839 0.9492 4.4113 0.0000 0.0000 0.0000 -17.0997 -1.6570 0.0176 0.0598 1.5773 4.3388 0.0068 -6.9459 -5.0282 0.9257 6.1294 17.1604 0.0000 0.0000 0.0000 21.2090 7.2424 6.4077 -0.0073 -0.5504 1.5124 -0.7714 -11.6926 -24.6387 -0.2286 -3.0778 8.4953 -0.6967 0.3581 -7.5752 -1.2698 0.5750 -1.2242 -0.8614 0.2843 2.9878 -1.4892 -3.3247 -1.0428 5.7118 -4.7316 5.9652 1.9734 -2.2556 2.2629 0.0000 0.0000 0.0000 -84.0546 4.2648 39.5455 11.2501 -18.6705 -1.8552 -0.0000 0.0000 -5.6101 10.2037 -10.7131 -1.9164 -7.1250 0.0000 -0.0000 -11.8829 19.2180 7.4708 0.0000 0.0000 0.0000 86.1176 -10.9559 30.9551 -15.7937 25.2401 -3.5575 0.0000 0.0000 3.7215 2.2632 -49.3972 -1.7187 7.1250 -0.0000 -0.0000 64.7678 -69.2138 -43.4355
9.3935 18.0888 -37.9371 0.4684 0.9854 4.4048 0.0000 0.0000 0.0000 -17.2208 -1.7300 -0.0172 0.0631 1.6213 4.4602 0.0167 -6.9872 -5.2856 0.7370 5.4845 15.2958 0.0000 0.0000 0.0000 21.0979 7.2262 6.3445 -0.0084 -0.5936 1.6311 -0.8103 -11.5483 -24.8227 -0.2341 -3.1137 8.5956 -0.5773 0.5545 -7.5246 -1.3764 0.8263 -1.4293 -1.0147 0.4108 2.7536 -1.7327 -3.6360 -0.1357 5.8169 -5.1310 5.6112 2.0548 -2.4777 2.0125 -0.0000 -0.0000 0.0000 -83.5162 4.5150 41.1849 11.4353 -18.9524 -1.9149 -0.0000 0.0000 -5.9889 9.7866 -9.5911 -1.6462 -7.1250 0.0000 -0.0000 -12.2367 20.3482 7.3862 -0.0000 -0.0000 0.0000 86.3058 -11.5214 30.3841 -15.8650 25.3372 -3.5880 0.0000 0.0000 3.6787 1.7665 -48.9215 -1.3318 7.1250 -0.0000 -0.0000 63.2946 -69.1652 -42.1295
9.3936 18.0894 -37.9366 0.5262 1.0317 4.3948 0.0000 0.0000 0.0000 -17.3016 -1.7293 -0.0024 0.0628 1.6174 4.4495 0.0168 -6.9579 -5.2691 0.6505 5.1590 14.3627 0.0000 0.0000 0.0000 21.0347 7.1968 6.3711 -0.0082 -0.5849 1.6071 -0.8045 -11.6255 -24.8480 -0.2181 -3.0063 8.2962 -0.4455 0.7575 -7.7864 -1.4630 1.0932 -1.3670 -1.1484 0.5451 2.9717 -2.3705 -3.8118 0.2193 6.3415 -5.3830 5.5572 2.3431 -2.6130 1.9851 -0.0000 0.0000 0.0000 -82.9753 4.4367 43.2543 11.4310 -18.9459 -1.9135 -0.0000 0.0000 -8.2445 10.3109 -10.5832 -1.9137 -7.1250 0.0000 -0.0000 -11.8143 19.3422 7.3923 -0.0000 0.0000 0.0000 86.5140 -11.6338 29.6629 -15.8768 25.3534 -3.5931 0.0000 0.0000 3.7530 1.5094 -48.7977 -1.1358 7.1250 -0.0000 -0.0000 62.8169 -69.1938 -41.7630
9.3930 18.0892 -37.9364 0.5143 1.0196 4.3947 0.0000 0.0000 0.0000 -17.2833 -1.7379 0.0065 0.0625 1.6131 4.4377 0.0158 -6.9634 -5.2497 0.7083 5.3791 14.9930 0.0000 0.0000 0.0000 21.0382 7.1712 6.3437 -0.0083 -0.5900 1.6213 -0.8073 -11.5921 -24.8392 -0.2156 -2.9893 8.2491 -0.3097 0.9336 -7.7304 -1.4824 1.3144 -1.4900 -1.2239 0.6562 2.8207 -2.5466 -4.1891 0.8103 6.2561 -5.8645 5.1168 2.3484 -2.8748 1.7637 0.0000 0.0000 0.0000 -82.7326 4.3246 44.4393 11.4595 -18.9891 -1.9228 -0.0000 0.0000 -8.6899 9.7088 -9.8665 -1.6793 -7.1250 0.0000 -0.0000 -12.2754 20.0785 7.4869 0.0000 0.0000 0.0000 86.5883 -11.9275 29.0921 -15.8442 25.3090 -3.5791 0.0000 0.0000 3.9873 1.6572 -48.6164 -1.2436 7.1250 -0.0000 -0.0000 62.5091 -69.0592 -41.3453
9.3925 18.0894 -37.9366 0.5449 1.0255 4.3906 0.0000 0.0000 0.0000 -17.3259 -1.7589 0.0101 0.0629 1.6178 4.4504 0.0174 -6.9609 -5.2854 0.6839 5.2874 14.7302 0.0000 0.0000 0.0000 20.9970 7.1526 6.3355 -0.0084 -0.5932 1.6300 -0.8114 -11.5775 -24.8592 -0.2134 -2.9740 8.2065 -0.2634 1.0195 -7.7621 -1.4926 1.4250 -1.5341 -1.2493 0.7115 2.7964 -2.7324 -4.4349 1.2111 6.2344 -6.1821 4.8349 2.3784 -3.0476 1.6240 -0.0000 -0.0000 0.0000 -82.6330 4.2582 45.1500 11.4416 -18.9620 -1.9170 -0.0000 0.0000 -9.2142 9.5888 -9.7692 -1.6419 -7.1250 0.0000 -0.0000 -12.3656 20.1794 7.5158 -0.0000 -0.0000 0.0000 86.6134 -12.0597 28.7224 -15.8229 25.2800 -3.5700 0.0000 0.0000 4.2653 1.8119 -48.4327 -1.3558 7.1250 -0.0000 -0.0000 62.2063 -68.9204 -40.9281
9.3920 18.0895 -37.9367 0.5683 1.0217 4.3883 0.0000 0.0000 0.0000 -17.3583 -1.7755 0.0132 0.0630 1.6195 4.4552 0.0189 -6.9496 -5.3105 0.6694 5.2322 14.5720 0.0000 0.0000 0.0000 20.9670 7.1451 6.3324 -0.0085 -0.5937 1.6313 -0.8118 -11.5808 -24.8656 -0.2100 -2.9502 8.1401 -0.2584 1.0412 -7.7932 -1.4685 1.4529 -1.5398 -1.2238 0.7254 2.8079 -2.8509 -4.6477 1.4464 6.1268 -6.4528 4.5744 2.3664 -3.1936 1.5126 0.0000 -0.0000 0.0000 -82.6938 4.1377 45.3888 11.3845 -18.8752 -1.8984 -0.0000 0.0000 -9.4885 9.5102 -9.7422 -1.6238 -7.1250 0.0000 -0.0000 -12.4225 20.2092 7.5436 0.0000 -0.0000 0.0000 86.5587 -12.0589 28.5201 -15.7828 25.2252 -3.5529 0.0000 0.0000 4.6065 2.2105 -48.4069 -1.6535 7.1250 -0.0000 -0.0000 62.4493 -68.7760 -40.9568
9.3914 18.0894 -37.9368 0.5869 1.0084 4.3868 0.0000 0.0000 0.0000 -17.3838 -1.7864 0.0145 0.0630 1.6196 4.4555 0.0206 -6.9290 -5.3372 0.6561 5.1808 14.4249 0.0000 0.0000 0.0000 20.9438 7.1456 6.3279 -0.0085 -0.5953 1.6358 -0.8105 -11.5899 -24.8635 -0.2055 -2.9185 8.0521 -0.2679 1.0157 -7.7892 -1.4304 1.4185 -1.5385 -1.1827 0.7081 2.8051 -2.9218 -4.8364 1.5648 5.9681 -6.6901 4.3466 2.3274 -3.3199 1.4266 0.0000 0.0000 0.0000 -82.8382 4.0214 45.2701 11.3172 -18.7728 -1.8767 -0.0000 0.0000 -9.4994 9.4360 -9.6886 -1.6021 -7.1250 0.0000 -0.0000 -12.4780 20.2650 7.5629 0.0000 0.0000 0.0000 86.4609 -11.9907 28.4742 -15.7301 25.1534 -3.5305 0.0000 0.0000 4.9112 3.0133 -48.8001 -2.2682 7.1250 -0.0000 -0.0000 63.9369 -68.6946 -42.1014
9.3908 18.0893 -37.9368 0.6033 0.9893 4.3835 0.0000 0.0000 0.0000 -17.4066 -1.7901 0.0196 0.0629 1.6181 4.4514 0.0226 -6.9025 -5.3658 0.6397 5.1170 14.2425 0.0000 0.0000 0.0000 20.9236 7.1448 6.3241 -0.0086 -0.5978 1.6428 -0.8078 -11.5995 -24.8501 -0.2009 -2.8859 7.9612 -0.2860 0.9608 -7.7765 -1.3877 1.3457 -1.5208 -1.1358 0.6716 2.8134 -2.9975 -4.9954 1.5903 5.8242 -6.8901 4.1650 2.2925 -3.4250 1.3706 -0.0000 0.0000 0.0000 -83.0079 3.8908 44.9783 11.2356 -18.6484 -1.8505 -0.0000 0.0000 -9.4495 9.4262 -9.7287 -1.6070 -7.1250 0.0000 -0.0000 -12.4826 20.2257 7.5771 -0.0000 0.0000 0.0000 86.3457 -11.8628 28.5340 -15.6735 25.0759 -3.5064 0.0000 0.0000 5.1571 3.7815 -49.2512 -2.8666 7.1250 -0.0000 -0.0000 65.5208 -68.6433 -43.3815
9.3902 18.0892 -37.9365 0.6193 0.9694 4.3781 0.0000 0.0000 0.0000 -17.4289 -1.7875 0.0313 0.0627 1.6154 4.4438 0.0247 -6.8763 -5.3961 0.6197 5.0380 14.0169 0.0000 0.0000 0.0000 20.9033 7.1373 6.3235 -0.0086 -0.5994 1.6470 -0.8046 -11.6058 -24.8303 -0.1967 -2.8558 7.8777 -0.2881 0.9109 -7.7445 -1.3558 1.2782 -1.5140 -1.1090 0.6379 2.8005 -3.1195 -5.1529 1.6070 5.7308 -7.0924 4.0246 2.2821 -3.5306 1.3337 -0.0000 0.0000 0.0000 -83.0935 3.8042 44.8062 11.1934 -18.5841 -1.8371 -0.0000 0.0000 -9.4589 9.4018 -9.7291 -1.6028 -7.1250 0.0000 -0.0000 -12.4997 20.2263 7.5878 -0.0000 0.0000 0.0000 86.2489 -11.7514 28.6110 -15.6209 25.0039 -3.4842 0.0000 0.0000 5.3114 4.3723 -49.6769 -3.3362 7.1250 -0.0000 -0.0000 66.9139 -68.6314 -44.5653
9.3898 18.0892 -37.9359 0.6355 0.9535 4.3694 0.0000 0.0000 0.0000 -17.4507 -1.7797 0.0500 0.0625 1.6125 4.4358 0.0266 -6.8580 -5.4287 0.5972 4.9473 13.7583 0.0000 0.0000 0.0000 20.8821 7.1207 6.3325 -0.0085 -0.5959 1.6374 -0.8021 -11.6036 -24.8072 -0.1945 -2.8400 7.8337 -0.2837 0.8609 -7.7032 -1.3277 1.2098 -1.5238 -1.0900 0.6038 2.7657 -3.2932 -5.3027 1.6664 5.6758 -7.2883 3.9077 2.2947 -3.6336 1.3006 -0.0000 0.0000 0.0000 -83.1375 3.7470 44.7108 11.1532 -18.5227 -1.8243 -0.0000 0.0000 -9.5403 9.3936 -9.7892 -1.6112 -7.1250 0.0000 -0.0000 -12.5018 20.1672 7.6062 -0.0000 0.0000 0.0000 86.1558 -11.6788 28.7185 -15.5746 24.9404 -3.4646 0.0000 0.0000 5.3791 4.6103 -49.9058 -3.5300 7.1250 -0.0000 -0.0000 67.6062 -68.6482 -45.1881
